HIERARCHY
	ROOT pelvis
	{
		OFFSET 0 0 0 
		CHANNELS 6 Xposition Yposition Zposition Zrotation Xrotation Yrotation
		JOINT lfemur_phantom
		{
			OFFSET 0 0.0899607 0 
			CHANNELS 3 Zrotation Xrotation Yrotation
			JOINT lfemur
			{
				OFFSET 0 0 -0.426035 
				CHANNELS 3 Zrotation Xrotation Yrotation
				JOINT ltibia
				{
					OFFSET 0 0 -0.409933 
					CHANNELS 3 Zrotation Xrotation Yrotation
					JOINT lfoot
					{
						OFFSET 0.105631 0 0.00135511 
						CHANNELS 3 Zrotation Xrotation Yrotation
						End Site
						{
							OFFSET 0.0352103 0 0.000451703
						}
					}
				}
			}
		}
		JOINT rfemur_phantom
		{
			OFFSET 0 -0.0899607 0 
			CHANNELS 3 Zrotation Xrotation Yrotation
			JOINT rfemur
			{
				OFFSET 0 0 -0.430137 
				CHANNELS 3 Zrotation Xrotation Yrotation
				JOINT rtibia
				{
					OFFSET 0 0 -0.390377 
					CHANNELS 3 Zrotation Xrotation Yrotation
					JOINT rfoot
					{
						OFFSET 0.106801 0 -0.00121178 
						CHANNELS 3 Zrotation Xrotation Yrotation
						End Site
						{
							OFFSET 0.0356003 0 -0.000403927
						}
					}
				}
			}
		}
		JOINT lowerback_phantom
		{
			OFFSET -0.05 0 0.107967 
			CHANNELS 3 Zrotation Xrotation Yrotation
			JOINT lowerback
			{
				OFFSET 0.0167886 0 0.161801 
				CHANNELS 3 Zrotation Xrotation Yrotation
				JOINT upperback
				{
					OFFSET 0 0 0 
					CHANNELS 3 Zrotation Xrotation Yrotation
					JOINT lclavicle_phantom
					{
						OFFSET 0 0 0.199349 
						CHANNELS 3 Zrotation Xrotation Yrotation
						JOINT lclavicle
						{
							OFFSET 0 0.164108 -0.0174105 
							CHANNELS 3 Zrotation Xrotation Yrotation
							JOINT lhumerus
							{
								OFFSET 0 0 -0.275026 
								CHANNELS 3 Zrotation Xrotation Yrotation
								JOINT lradius
								{
									OFFSET 0 0 -0.248775 
									CHANNELS 3 Zrotation Xrotation Yrotation
									End Site
									{
										OFFSET 0 0 -0.082925
									}
								}
							}
						}
					}
					JOINT rclavicle_phantom
					{
						OFFSET 0 0 0.199349 
						CHANNELS 3 Zrotation Xrotation Yrotation
						JOINT rclavicle
						{
							OFFSET 0 -0.165322 -0.0298984 
							CHANNELS 3 Zrotation Xrotation Yrotation
							JOINT rhumerus
							{
								OFFSET 0 0 -0.273337 
								CHANNELS 3 Zrotation Xrotation Yrotation
								JOINT rradius
								{
									OFFSET 0 0 -0.254845 
									CHANNELS 3 Zrotation Xrotation Yrotation
									End Site
									{
										OFFSET 0 0 -0.0849483
									}
								}
							}
						}
					}
					JOINT LowerNeck_phantom
					{
						OFFSET 0 0 0.199349 
						CHANNELS 3 Zrotation Xrotation Yrotation
						JOINT LowerNeck
						{
							OFFSET -0.0127292 -0.000602123 0.105365 
							CHANNELS 3 Zrotation Xrotation Yrotation
							End Site
							{
								OFFSET -0.00424307 -0.000200708 0.0351217
							}
						}
					}
				}
			}
		}
	}
MOTION
Frames:	6
Frame Time:	0.0166667
-0.05725 0.890589 0.001296 82.021 -64.3896 77.4586 18.8477 3.81471 2.27468 24.6021 2.01016 4.38068 -2.66017 -7.19483 24.6464 -6.94511e-006 3.21636e-006 8.53258 -3.73802 -9.78065 -4.83415 -18.7663 -6.4556 18.3098 3.86571 6.0795 12.4612 -1.04959e-006 5.83287e-008 27.2821 1.98756 -0.0772825 8.68961 6.11511 1.49251 1.3416 -0 0 -0 -6.67214 -12.8585 -1.49126 33.0876 30.0771 -23.2381 -4.08789 -5.92269 -124.707 2.08143e-006 1.97475 -15.5382 5.04019 3.26221 -0.287553 22.7603 -39.8642 -28.8485 7.98712 14.6307 -119.052 -7.61908e-006 -0.15377 -11.7631 -0.348832 0.464125 39.4325 31.3762 -31.8917 -61.0356 
-0.0560767 0.890486 0.002793 82.2166 -64.099 77.5582 18.6706 3.98368 2.2396 24.4949 2.04649 4.48157 -2.68228 -7.25747 24.6526 -3.50793e-006 1.21583e-006 8.36644 -3.84058 -9.6358 -4.71729 -18.8455 -6.52444 18.4132 3.8284 5.99761 12.3628 -1.05409e-007 -1.94492e-007 27.2108 1.71853 -0.0686347 8.66274 5.94676 1.44719 1.37731 -0 0 -0 -6.57843 -12.9288 -1.47803 33.0315 30.0133 -22.7614 -3.93409 -5.73227 -124.549 -4.48764e-006 1.70867 -15.4726 4.97095 3.14605 -0.273497 23.2219 -39.7414 -28.3337 7.81255 14.4166 -118.859 -1.29584e-005 0.146772 -11.6111 -0.376185 0.290325 39.3937 31.5525 -31.8313 -61.0173 
-0.0549943 0.890373 0.004379 82.4603 -63.8021 77.7269 18.4701 4.16143 2.12426 24.394 2.10695 4.63487 -2.69061 -7.29547 24.6918 -4.49986e-006 1.22915e-006 8.35813 -3.93973 -9.46505 -4.62288 -18.9531 -6.5972 18.4976 3.79997 5.93467 12.2838 -2.63912e-007 6.74591e-007 27.1584 1.48457 -0.0341622 8.60564 5.80299 1.39789 1.40037 -0 0 -0 -6.55472 -12.9542 -1.47551 32.979 29.9434 -22.3829 -3.74307 -5.47688 -124.429 4.99455e-006 1.51203 -15.4022 4.90884 3.03515 -0.260551 23.5063 -39.6604 -27.9295 7.69326 14.2322 -118.787 6.29074e-006 0.396753 -11.4591 -0.434589 0.163652 39.403 31.6566 -31.7723 -61.0115 
-0.0540268 0.890263 0.005996 82.7196 -63.5105 77.9294 18.2398 4.33247 1.95718 24.3107 2.18222 4.81813 -2.67848 -7.28872 24.7589 6.17493e-007 7.79492e-007 8.45948 -4.06974 -9.28348 -4.5448 -19.0622 -6.65983 18.5533 3.78148 5.88601 12.1974 -1.17108e-006 -6.73025e-007 27.1474 1.28191 0.022831 8.53658 5.69413 1.33741 1.40208 -0 0 -0 -6.58303 -12.9338 -1.47964 32.9001 29.876 -22.0945 -3.56666 -5.23133 -124.357 -3.68002e-008 1.44504 -15.3268 4.86907 2.94222 -0.250525 23.6019 -39.6552 -27.6493 7.69327 14.1998 -118.841 2.69262e-006 0.595862 -11.3555 -0.496426 0.0979014 39.4434 31.6816 -31.7123 -61.0066 
-0.0531836 0.890169 0.007604 82.9875 -63.2269 78.1528 18.0012 4.49708 1.75559 24.2342 2.26708 5.02221 -2.65462 -7.25641 24.8431 -9.33605e-006 -1.95159e-006 8.63682 -4.23171 -9.09609 -4.46859 -19.1685 -6.70476 18.5653 3.76877 5.84545 12.1056 1.18166e-006 -1.19877e-006 27.1705 1.09944 0.0898082 8.45975 5.62183 1.29035 1.38671 -0 0 -0 -6.64214 -12.8904 -1.48811 32.807 29.8218 -21.915 -3.44651 -5.05938 -124.33 -4.41813e-006 1.48123 -15.2598 4.84747 2.86812 -0.243134 23.5413 -39.7459 -27.4976 7.80933 14.336 -118.982 -1.5089e-006 0.728323 -11.3334 -0.545824 0.0558735 39.4808 31.6619 -31.6184 -60.979 
-0.0524783 0.890083 0.009215 83.2692 -62.9586 78.4032 17.7989 4.66425 1.51991 24.1473 2.35711 5.24157 -2.63434 -7.23555 24.9323 4.90358e-006 1.62232e-006 8.84677 -4.39929 -8.8993 -4.40502 -19.2767 -6.74029 18.5513 3.76027 5.81317 12.0206 -4.47859e-007 8.41372e-007 27.2076 0.940931 0.16186 8.37903 5.57242 1.27387 1.35177 -0 0 -0 -6.72252 -12.8511 -1.50176 32.7547 29.7938 -21.8761 -3.37785 -4.95709 -124.335 3.05691e-006 1.54914 -15.2258 4.84363 2.81275 -0.238255 23.3614 -39.9158 -27.473 7.9694 14.5349 -119.154 -1.52458e-006 0.780038 -11.3551 -0.590366 -0.00373044 39.5057 31.6455 -31.4894 -60.9138 
